<?xml version="1.0" encoding="utf-8" standalone="no"?>
<!DOCTYPE svg PUBLIC "-//W3C//DTD SVG 1.1//EN"
  "http://www.w3.org/Graphics/SVG/1.1/DTD/svg11.dtd">
<!-- Created with matplotlib (http://matplotlib.org/) -->
<svg height="442pt" version="1.1" viewBox="0 0 586 442" width="586pt" xmlns="http://www.w3.org/2000/svg" xmlns:xlink="http://www.w3.org/1999/xlink">
 <defs>
  <style type="text/css">
*{stroke-linecap:square;stroke-linejoin:round;}
  </style>
 </defs>
 <g id="figure_1">
  <g id="patch_1">
   <path d="
M0 442.8
L586.8 442.8
L586.8 0
L0 0
z
" style="fill:#ffffff;"/>
  </g>
  <g id="axes_1">
   <g id="patch_2">
    <path d="
M73.35 398.52
L280.064 398.52
L280.064 44.28
L73.35 44.28
z
" style="fill:#ffffff;"/>
   </g>
   <g id="line2d_1">
    <path clip-path="url(#p112c3d4e09)" d="
M73.35 359.936
L74.5903 359.936
L74.797 291.999
L78.3111 291.999
L78.5178 274.297
L79.3447 274.297
L79.5514 251.704
L80.3783 251.704
L80.585 251.488
L82.4454 251.488
L82.6521 234.821
L83.6857 234.813
L83.8924 234.6
L85.7528 234.537
L85.9595 229.654
L86.1662 218.459
L94.4348 218.449
L94.6415 195.627
L102.29 195.611
L102.497 194.498
L110.352 194.498
L110.558 194.215
L110.972 194.215
L111.179 193.203
L124.615 193.203
L125.028 193.072
L127.922 193.072
L128.129 156.797
L133.71 156.797
L133.917 151.142
L135.157 151.142
L135.364 149.859
L137.845 149.858
L138.051 149.078
L138.258 149.078
L138.465 147.373
L141.979 147.373
L142.186 137.117
L143.012 137.116
L143.219 135.064
L144.253 135.064
L144.459 128.862
L153.762 128.854
L153.968 126.281
L154.382 126.281
L154.588 111.365
L161.203 111.344
L161.41 110.427
L162.444 110.427
L162.65 110.003
L163.27 110.003
L163.477 109.122
L173.606 109.122
L173.813 100.733
L180.841 100.733
L181.048 100.06
L181.875 100.06
L182.081 96.9136
L200.479 96.9135
L200.686 94.3278
L219.91 94.2203
L220.117 93.383
L226.938 93.383
L227.145 92.7688
L249.057 92.7688
L249.263 92.5729
L256.705 92.5729
L256.912 92.1123
L267.041 92.1018
L267.247 90.9205
L268.281 90.9205
L268.488 90.4536
L276.343 90.4536
L276.55 87.5044
L279.857 87.4244
L279.857 87.4244" style="fill:none;stroke:#008000;"/>
   </g>
   <g id="matplotlib.axis_1">
    <g id="xtick_1">
     <g id="line2d_2">
      <defs>
       <path d="
M0 0
L0 -4" id="mcb557df647" style="stroke:#000000;stroke-linecap:butt;stroke-width:0.5;"/>
      </defs>
      <g>
       <use style="stroke:#000000;stroke-linecap:butt;stroke-width:0.5;" x="73.35" xlink:href="#mcb557df647" y="398.52"/>
      </g>
     </g>
     <g id="line2d_3">
      <defs>
       <path d="
M0 0
L0 4" id="mdad270ee8e" style="stroke:#000000;stroke-linecap:butt;stroke-width:0.5;"/>
      </defs>
      <g>
       <use style="stroke:#000000;stroke-linecap:butt;stroke-width:0.5;" x="73.35" xlink:href="#mdad270ee8e" y="44.28"/>
      </g>
     </g>
     <g id="text_1">
      <!-- 0 -->
      <defs>
       <path d="
M31.7812 66.4062
Q24.1719 66.4062 20.3281 58.9062
Q16.5 51.4219 16.5 36.375
Q16.5 21.3906 20.3281 13.8906
Q24.1719 6.39062 31.7812 6.39062
Q39.4531 6.39062 43.2812 13.8906
Q47.125 21.3906 47.125 36.375
Q47.125 51.4219 43.2812 58.9062
Q39.4531 66.4062 31.7812 66.4062
M31.7812 74.2188
Q44.0469 74.2188 50.5156 64.5156
Q56.9844 54.8281 56.9844 36.375
Q56.9844 17.9688 50.5156 8.26562
Q44.0469 -1.42188 31.7812 -1.42188
Q19.5312 -1.42188 13.0625 8.26562
Q6.59375 17.9688 6.59375 36.375
Q6.59375 54.8281 13.0625 64.5156
Q19.5312 74.2188 31.7812 74.2188" id="BitstreamVeraSans-Roman-30"/>
      </defs>
      <g transform="translate(70.3265625 411.42625)scale(0.12 -0.12)">
       <use xlink:href="#BitstreamVeraSans-Roman-30"/>
      </g>
     </g>
    </g>
    <g id="xtick_2">
     <g id="line2d_4">
      <g>
       <use style="stroke:#000000;stroke-linecap:butt;stroke-width:0.5;" x="114.692727273" xlink:href="#mcb557df647" y="398.52"/>
      </g>
     </g>
     <g id="line2d_5">
      <g>
       <use style="stroke:#000000;stroke-linecap:butt;stroke-width:0.5;" x="114.692727273" xlink:href="#mdad270ee8e" y="44.28"/>
      </g>
     </g>
     <g id="text_2">
      <!-- 200 -->
      <defs>
       <path d="
M19.1875 8.29688
L53.6094 8.29688
L53.6094 0
L7.32812 0
L7.32812 8.29688
Q12.9375 14.1094 22.625 23.8906
Q32.3281 33.6875 34.8125 36.5312
Q39.5469 41.8438 41.4219 45.5312
Q43.3125 49.2188 43.3125 52.7812
Q43.3125 58.5938 39.2344 62.25
Q35.1562 65.9219 28.6094 65.9219
Q23.9688 65.9219 18.8125 64.3125
Q13.6719 62.7031 7.8125 59.4219
L7.8125 69.3906
Q13.7656 71.7812 18.9375 73
Q24.125 74.2188 28.4219 74.2188
Q39.75 74.2188 46.4844 68.5469
Q53.2188 62.8906 53.2188 53.4219
Q53.2188 48.9219 51.5312 44.8906
Q49.8594 40.875 45.4062 35.4062
Q44.1875 33.9844 37.6406 27.2188
Q31.1094 20.4531 19.1875 8.29688" id="BitstreamVeraSans-Roman-32"/>
      </defs>
      <g transform="translate(104.078352273 411.42625)scale(0.12 -0.12)">
       <use xlink:href="#BitstreamVeraSans-Roman-32"/>
       <use x="63.623046875" xlink:href="#BitstreamVeraSans-Roman-30"/>
       <use x="127.24609375" xlink:href="#BitstreamVeraSans-Roman-30"/>
      </g>
     </g>
    </g>
    <g id="xtick_3">
     <g id="line2d_6">
      <g>
       <use style="stroke:#000000;stroke-linecap:butt;stroke-width:0.5;" x="156.035454545" xlink:href="#mcb557df647" y="398.52"/>
      </g>
     </g>
     <g id="line2d_7">
      <g>
       <use style="stroke:#000000;stroke-linecap:butt;stroke-width:0.5;" x="156.035454545" xlink:href="#mdad270ee8e" y="44.28"/>
      </g>
     </g>
     <g id="text_3">
      <!-- 400 -->
      <defs>
       <path d="
M37.7969 64.3125
L12.8906 25.3906
L37.7969 25.3906
z

M35.2031 72.9062
L47.6094 72.9062
L47.6094 25.3906
L58.0156 25.3906
L58.0156 17.1875
L47.6094 17.1875
L47.6094 0
L37.7969 0
L37.7969 17.1875
L4.89062 17.1875
L4.89062 26.7031
z
" id="BitstreamVeraSans-Roman-34"/>
      </defs>
      <g transform="translate(145.274829545 411.42625)scale(0.12 -0.12)">
       <use xlink:href="#BitstreamVeraSans-Roman-34"/>
       <use x="63.623046875" xlink:href="#BitstreamVeraSans-Roman-30"/>
       <use x="127.24609375" xlink:href="#BitstreamVeraSans-Roman-30"/>
      </g>
     </g>
    </g>
    <g id="xtick_4">
     <g id="line2d_8">
      <g>
       <use style="stroke:#000000;stroke-linecap:butt;stroke-width:0.5;" x="197.378181818" xlink:href="#mcb557df647" y="398.52"/>
      </g>
     </g>
     <g id="line2d_9">
      <g>
       <use style="stroke:#000000;stroke-linecap:butt;stroke-width:0.5;" x="197.378181818" xlink:href="#mdad270ee8e" y="44.28"/>
      </g>
     </g>
     <g id="text_4">
      <!-- 600 -->
      <defs>
       <path d="
M33.0156 40.375
Q26.375 40.375 22.4844 35.8281
Q18.6094 31.2969 18.6094 23.3906
Q18.6094 15.5312 22.4844 10.9531
Q26.375 6.39062 33.0156 6.39062
Q39.6562 6.39062 43.5312 10.9531
Q47.4062 15.5312 47.4062 23.3906
Q47.4062 31.2969 43.5312 35.8281
Q39.6562 40.375 33.0156 40.375
M52.5938 71.2969
L52.5938 62.3125
Q48.875 64.0625 45.0938 64.9844
Q41.3125 65.9219 37.5938 65.9219
Q27.8281 65.9219 22.6719 59.3281
Q17.5312 52.7344 16.7969 39.4062
Q19.6719 43.6562 24.0156 45.9219
Q28.375 48.1875 33.5938 48.1875
Q44.5781 48.1875 50.9531 41.5156
Q57.3281 34.8594 57.3281 23.3906
Q57.3281 12.1562 50.6875 5.35938
Q44.0469 -1.42188 33.0156 -1.42188
Q20.3594 -1.42188 13.6719 8.26562
Q6.98438 17.9688 6.98438 36.375
Q6.98438 53.6562 15.1875 63.9375
Q23.3906 74.2188 37.2031 74.2188
Q40.9219 74.2188 44.7031 73.4844
Q48.4844 72.75 52.5938 71.2969" id="BitstreamVeraSans-Roman-36"/>
      </defs>
      <g transform="translate(186.743181818 411.42625)scale(0.12 -0.12)">
       <use xlink:href="#BitstreamVeraSans-Roman-36"/>
       <use x="63.623046875" xlink:href="#BitstreamVeraSans-Roman-30"/>
       <use x="127.24609375" xlink:href="#BitstreamVeraSans-Roman-30"/>
      </g>
     </g>
    </g>
    <g id="xtick_5">
     <g id="line2d_10">
      <g>
       <use style="stroke:#000000;stroke-linecap:butt;stroke-width:0.5;" x="238.720909091" xlink:href="#mcb557df647" y="398.52"/>
      </g>
     </g>
     <g id="line2d_11">
      <g>
       <use style="stroke:#000000;stroke-linecap:butt;stroke-width:0.5;" x="238.720909091" xlink:href="#mdad270ee8e" y="44.28"/>
      </g>
     </g>
     <g id="text_5">
      <!-- 800 -->
      <defs>
       <path d="
M31.7812 34.625
Q24.75 34.625 20.7188 30.8594
Q16.7031 27.0938 16.7031 20.5156
Q16.7031 13.9219 20.7188 10.1562
Q24.75 6.39062 31.7812 6.39062
Q38.8125 6.39062 42.8594 10.1719
Q46.9219 13.9688 46.9219 20.5156
Q46.9219 27.0938 42.8906 30.8594
Q38.875 34.625 31.7812 34.625
M21.9219 38.8125
Q15.5781 40.375 12.0312 44.7188
Q8.5 49.0781 8.5 55.3281
Q8.5 64.0625 14.7188 69.1406
Q20.9531 74.2188 31.7812 74.2188
Q42.6719 74.2188 48.875 69.1406
Q55.0781 64.0625 55.0781 55.3281
Q55.0781 49.0781 51.5312 44.7188
Q48 40.375 41.7031 38.8125
Q48.8281 37.1562 52.7969 32.3125
Q56.7812 27.4844 56.7812 20.5156
Q56.7812 9.90625 50.3125 4.23438
Q43.8438 -1.42188 31.7812 -1.42188
Q19.7344 -1.42188 13.25 4.23438
Q6.78125 9.90625 6.78125 20.5156
Q6.78125 27.4844 10.7812 32.3125
Q14.7969 37.1562 21.9219 38.8125
M18.3125 54.3906
Q18.3125 48.7344 21.8438 45.5625
Q25.3906 42.3906 31.7812 42.3906
Q38.1406 42.3906 41.7188 45.5625
Q45.3125 48.7344 45.3125 54.3906
Q45.3125 60.0625 41.7188 63.2344
Q38.1406 66.4062 31.7812 66.4062
Q25.3906 66.4062 21.8438 63.2344
Q18.3125 60.0625 18.3125 54.3906" id="BitstreamVeraSans-Roman-38"/>
      </defs>
      <g transform="translate(228.073721591 411.42625)scale(0.12 -0.12)">
       <use xlink:href="#BitstreamVeraSans-Roman-38"/>
       <use x="63.623046875" xlink:href="#BitstreamVeraSans-Roman-30"/>
       <use x="127.24609375" xlink:href="#BitstreamVeraSans-Roman-30"/>
      </g>
     </g>
    </g>
    <g id="xtick_6">
     <g id="line2d_12">
      <g>
       <use style="stroke:#000000;stroke-linecap:butt;stroke-width:0.5;" x="280.063636364" xlink:href="#mcb557df647" y="398.52"/>
      </g>
     </g>
     <g id="line2d_13">
      <g>
       <use style="stroke:#000000;stroke-linecap:butt;stroke-width:0.5;" x="280.063636364" xlink:href="#mdad270ee8e" y="44.28"/>
      </g>
     </g>
     <g id="text_6">
      <!-- 1000 -->
      <defs>
       <path d="
M12.4062 8.29688
L28.5156 8.29688
L28.5156 63.9219
L10.9844 60.4062
L10.9844 69.3906
L28.4219 72.9062
L38.2812 72.9062
L38.2812 8.29688
L54.3906 8.29688
L54.3906 0
L12.4062 0
z
" id="BitstreamVeraSans-Roman-31"/>
      </defs>
      <g transform="translate(265.851136364 411.42625)scale(0.12 -0.12)">
       <use xlink:href="#BitstreamVeraSans-Roman-31"/>
       <use x="63.623046875" xlink:href="#BitstreamVeraSans-Roman-30"/>
       <use x="127.24609375" xlink:href="#BitstreamVeraSans-Roman-30"/>
       <use x="190.869140625" xlink:href="#BitstreamVeraSans-Roman-30"/>
      </g>
     </g>
    </g>
    <g id="text_7">
     <!-- Iterations -->
     <defs>
      <path d="
M54.8906 33.0156
L54.8906 0
L45.9062 0
L45.9062 32.7188
Q45.9062 40.4844 42.875 44.3281
Q39.8438 48.1875 33.7969 48.1875
Q26.5156 48.1875 22.3125 43.5469
Q18.1094 38.9219 18.1094 30.9062
L18.1094 0
L9.07812 0
L9.07812 54.6875
L18.1094 54.6875
L18.1094 46.1875
Q21.3438 51.125 25.7031 53.5625
Q30.0781 56 35.7969 56
Q45.2188 56 50.0469 50.1719
Q54.8906 44.3438 54.8906 33.0156" id="BitstreamVeraSans-Roman-6e"/>
      <path d="
M41.1094 46.2969
Q39.5938 47.1719 37.8125 47.5781
Q36.0312 48 33.8906 48
Q26.2656 48 22.1875 43.0469
Q18.1094 38.0938 18.1094 28.8125
L18.1094 0
L9.07812 0
L9.07812 54.6875
L18.1094 54.6875
L18.1094 46.1875
Q20.9531 51.1719 25.4844 53.5781
Q30.0312 56 36.5312 56
Q37.4531 56 38.5781 55.875
Q39.7031 55.7656 41.0625 55.5156
z
" id="BitstreamVeraSans-Roman-72"/>
      <path d="
M30.6094 48.3906
Q23.3906 48.3906 19.1875 42.75
Q14.9844 37.1094 14.9844 27.2969
Q14.9844 17.4844 19.1562 11.8438
Q23.3438 6.20312 30.6094 6.20312
Q37.7969 6.20312 41.9844 11.8594
Q46.1875 17.5312 46.1875 27.2969
Q46.1875 37.0156 41.9844 42.7031
Q37.7969 48.3906 30.6094 48.3906
M30.6094 56
Q42.3281 56 49.0156 48.375
Q55.7188 40.7656 55.7188 27.2969
Q55.7188 13.875 49.0156 6.21875
Q42.3281 -1.42188 30.6094 -1.42188
Q18.8438 -1.42188 12.1719 6.21875
Q5.51562 13.875 5.51562 27.2969
Q5.51562 40.7656 12.1719 48.375
Q18.8438 56 30.6094 56" id="BitstreamVeraSans-Roman-6f"/>
      <path d="
M9.42188 54.6875
L18.4062 54.6875
L18.4062 0
L9.42188 0
z

M9.42188 75.9844
L18.4062 75.9844
L18.4062 64.5938
L9.42188 64.5938
z
" id="BitstreamVeraSans-Roman-69"/>
      <path d="
M56.2031 29.5938
L56.2031 25.2031
L14.8906 25.2031
Q15.4844 15.9219 20.4844 11.0625
Q25.4844 6.20312 34.4219 6.20312
Q39.5938 6.20312 44.4531 7.46875
Q49.3125 8.73438 54.1094 11.2812
L54.1094 2.78125
Q49.2656 0.734375 44.1875 -0.34375
Q39.1094 -1.42188 33.8906 -1.42188
Q20.7969 -1.42188 13.1562 6.1875
Q5.51562 13.8125 5.51562 26.8125
Q5.51562 40.2344 12.7656 48.1094
Q20.0156 56 32.3281 56
Q43.3594 56 49.7812 48.8906
Q56.2031 41.7969 56.2031 29.5938
M47.2188 32.2344
Q47.125 39.5938 43.0938 43.9844
Q39.0625 48.3906 32.4219 48.3906
Q24.9062 48.3906 20.3906 44.1406
Q15.875 39.8906 15.1875 32.1719
z
" id="BitstreamVeraSans-Roman-65"/>
      <path d="
M18.3125 70.2188
L18.3125 54.6875
L36.8125 54.6875
L36.8125 47.7031
L18.3125 47.7031
L18.3125 18.0156
Q18.3125 11.3281 20.1406 9.42188
Q21.9688 7.51562 27.5938 7.51562
L36.8125 7.51562
L36.8125 0
L27.5938 0
Q17.1875 0 13.2344 3.875
Q9.28125 7.76562 9.28125 18.0156
L9.28125 47.7031
L2.6875 47.7031
L2.6875 54.6875
L9.28125 54.6875
L9.28125 70.2188
z
" id="BitstreamVeraSans-Roman-74"/>
      <path d="
M34.2812 27.4844
Q23.3906 27.4844 19.1875 25
Q14.9844 22.5156 14.9844 16.5
Q14.9844 11.7188 18.1406 8.90625
Q21.2969 6.10938 26.7031 6.10938
Q34.1875 6.10938 38.7031 11.4062
Q43.2188 16.7031 43.2188 25.4844
L43.2188 27.4844
z

M52.2031 31.2031
L52.2031 0
L43.2188 0
L43.2188 8.29688
Q40.1406 3.32812 35.5469 0.953125
Q30.9531 -1.42188 24.3125 -1.42188
Q15.9219 -1.42188 10.9531 3.29688
Q6 8.01562 6 15.9219
Q6 25.1406 12.1719 29.8281
Q18.3594 34.5156 30.6094 34.5156
L43.2188 34.5156
L43.2188 35.4062
Q43.2188 41.6094 39.1406 45
Q35.0625 48.3906 27.6875 48.3906
Q23 48.3906 18.5469 47.2656
Q14.1094 46.1406 10.0156 43.8906
L10.0156 52.2031
Q14.9375 54.1094 19.5781 55.0469
Q24.2188 56 28.6094 56
Q40.4844 56 46.3438 49.8438
Q52.2031 43.7031 52.2031 31.2031" id="BitstreamVeraSans-Roman-61"/>
      <path d="
M44.2812 53.0781
L44.2812 44.5781
Q40.4844 46.5312 36.375 47.5
Q32.2812 48.4844 27.875 48.4844
Q21.1875 48.4844 17.8438 46.4375
Q14.5 44.3906 14.5 40.2812
Q14.5 37.1562 16.8906 35.375
Q19.2812 33.5938 26.5156 31.9844
L29.5938 31.2969
Q39.1562 29.25 43.1875 25.5156
Q47.2188 21.7812 47.2188 15.0938
Q47.2188 7.46875 41.1875 3.01562
Q35.1562 -1.42188 24.6094 -1.42188
Q20.2188 -1.42188 15.4531 -0.5625
Q10.6875 0.296875 5.42188 2
L5.42188 11.2812
Q10.4062 8.6875 15.2344 7.39062
Q20.0625 6.10938 24.8125 6.10938
Q31.1562 6.10938 34.5625 8.28125
Q37.9844 10.4531 37.9844 14.4062
Q37.9844 18.0625 35.5156 20.0156
Q33.0625 21.9688 24.7031 23.7812
L21.5781 24.5156
Q13.2344 26.2656 9.51562 29.9062
Q5.8125 33.5469 5.8125 39.8906
Q5.8125 47.6094 11.2812 51.7969
Q16.75 56 26.8125 56
Q31.7812 56 36.1719 55.2656
Q40.5781 54.5469 44.2812 53.0781" id="BitstreamVeraSans-Roman-73"/>
      <path d="
M9.8125 72.9062
L19.6719 72.9062
L19.6719 0
L9.8125 0
z
" id="BitstreamVeraSans-Roman-49"/>
     </defs>
     <g transform="translate(149.012130682 425.715)scale(0.12 -0.12)">
      <use xlink:href="#BitstreamVeraSans-Roman-49"/>
      <use x="29.4921875" xlink:href="#BitstreamVeraSans-Roman-74"/>
      <use x="68.701171875" xlink:href="#BitstreamVeraSans-Roman-65"/>
      <use x="130.224609375" xlink:href="#BitstreamVeraSans-Roman-72"/>
      <use x="171.337890625" xlink:href="#BitstreamVeraSans-Roman-61"/>
      <use x="232.6171875" xlink:href="#BitstreamVeraSans-Roman-74"/>
      <use x="271.826171875" xlink:href="#BitstreamVeraSans-Roman-69"/>
      <use x="299.609375" xlink:href="#BitstreamVeraSans-Roman-6f"/>
      <use x="360.791015625" xlink:href="#BitstreamVeraSans-Roman-6e"/>
      <use x="424.169921875" xlink:href="#BitstreamVeraSans-Roman-73"/>
     </g>
    </g>
   </g>
   <g id="matplotlib.axis_2">
    <g id="ytick_1">
     <g id="line2d_14">
      <defs>
       <path d="
M0 0
L4 0" id="mc8fcea1516" style="stroke:#000000;stroke-linecap:butt;stroke-width:0.5;"/>
      </defs>
      <g>
       <use style="stroke:#000000;stroke-linecap:butt;stroke-width:0.5;" x="73.35" xlink:href="#mc8fcea1516" y="398.52"/>
      </g>
     </g>
     <g id="line2d_15">
      <defs>
       <path d="
M0 0
L-4 0" id="m0d5b0a6425" style="stroke:#000000;stroke-linecap:butt;stroke-width:0.5;"/>
      </defs>
      <g>
       <use style="stroke:#000000;stroke-linecap:butt;stroke-width:0.5;" x="280.063636364" xlink:href="#m0d5b0a6425" y="398.52"/>
      </g>
     </g>
     <g id="text_8">
      <!-- 0.10 -->
      <defs>
       <path d="
M10.6875 12.4062
L21 12.4062
L21 0
L10.6875 0
z
" id="BitstreamVeraSans-Roman-2e"/>
      </defs>
      <g transform="translate(44.219375 402.8878125)scale(0.12 -0.12)">
       <use xlink:href="#BitstreamVeraSans-Roman-30"/>
       <use x="63.623046875" xlink:href="#BitstreamVeraSans-Roman-2e"/>
       <use x="95.41015625" xlink:href="#BitstreamVeraSans-Roman-31"/>
       <use x="159.033203125" xlink:href="#BitstreamVeraSans-Roman-30"/>
      </g>
     </g>
    </g>
    <g id="ytick_2">
     <g id="line2d_16">
      <g>
       <use style="stroke:#000000;stroke-linecap:butt;stroke-width:0.5;" x="73.35" xlink:href="#mc8fcea1516" y="347.914285714"/>
      </g>
     </g>
     <g id="line2d_17">
      <g>
       <use style="stroke:#000000;stroke-linecap:butt;stroke-width:0.5;" x="280.063636364" xlink:href="#m0d5b0a6425" y="347.914285714"/>
      </g>
     </g>
     <g id="text_9">
      <!-- 0.15 -->
      <defs>
       <path d="
M10.7969 72.9062
L49.5156 72.9062
L49.5156 64.5938
L19.8281 64.5938
L19.8281 46.7344
Q21.9688 47.4688 24.1094 47.8281
Q26.2656 48.1875 28.4219 48.1875
Q40.625 48.1875 47.75 41.5
Q54.8906 34.8125 54.8906 23.3906
Q54.8906 11.625 47.5625 5.09375
Q40.2344 -1.42188 26.9062 -1.42188
Q22.3125 -1.42188 17.5469 -0.640625
Q12.7969 0.140625 7.71875 1.70312
L7.71875 11.625
Q12.1094 9.23438 16.7969 8.0625
Q21.4844 6.89062 26.7031 6.89062
Q35.1562 6.89062 40.0781 11.3281
Q45.0156 15.7656 45.0156 23.3906
Q45.0156 31 40.0781 35.4375
Q35.1562 39.8906 26.7031 39.8906
Q22.75 39.8906 18.8125 39.0156
Q14.8906 38.1406 10.7969 36.2812
z
" id="BitstreamVeraSans-Roman-35"/>
      </defs>
      <g transform="translate(44.470625 352.282098214)scale(0.12 -0.12)">
       <use xlink:href="#BitstreamVeraSans-Roman-30"/>
       <use x="63.623046875" xlink:href="#BitstreamVeraSans-Roman-2e"/>
       <use x="95.41015625" xlink:href="#BitstreamVeraSans-Roman-31"/>
       <use x="159.033203125" xlink:href="#BitstreamVeraSans-Roman-35"/>
      </g>
     </g>
    </g>
    <g id="ytick_3">
     <g id="line2d_18">
      <g>
       <use style="stroke:#000000;stroke-linecap:butt;stroke-width:0.5;" x="73.35" xlink:href="#mc8fcea1516" y="297.308571429"/>
      </g>
     </g>
     <g id="line2d_19">
      <g>
       <use style="stroke:#000000;stroke-linecap:butt;stroke-width:0.5;" x="280.063636364" xlink:href="#m0d5b0a6425" y="297.308571429"/>
      </g>
     </g>
     <g id="text_10">
      <!-- 0.20 -->
      <g transform="translate(44.219375 301.676383929)scale(0.12 -0.12)">
       <use xlink:href="#BitstreamVeraSans-Roman-30"/>
       <use x="63.623046875" xlink:href="#BitstreamVeraSans-Roman-2e"/>
       <use x="95.41015625" xlink:href="#BitstreamVeraSans-Roman-32"/>
       <use x="159.033203125" xlink:href="#BitstreamVeraSans-Roman-30"/>
      </g>
     </g>
    </g>
    <g id="ytick_4">
     <g id="line2d_20">
      <g>
       <use style="stroke:#000000;stroke-linecap:butt;stroke-width:0.5;" x="73.35" xlink:href="#mc8fcea1516" y="246.702857143"/>
      </g>
     </g>
     <g id="line2d_21">
      <g>
       <use style="stroke:#000000;stroke-linecap:butt;stroke-width:0.5;" x="280.063636364" xlink:href="#m0d5b0a6425" y="246.702857143"/>
      </g>
     </g>
     <g id="text_11">
      <!-- 0.25 -->
      <g transform="translate(44.470625 251.070669643)scale(0.12 -0.12)">
       <use xlink:href="#BitstreamVeraSans-Roman-30"/>
       <use x="63.623046875" xlink:href="#BitstreamVeraSans-Roman-2e"/>
       <use x="95.41015625" xlink:href="#BitstreamVeraSans-Roman-32"/>
       <use x="159.033203125" xlink:href="#BitstreamVeraSans-Roman-35"/>
      </g>
     </g>
    </g>
    <g id="ytick_5">
     <g id="line2d_22">
      <g>
       <use style="stroke:#000000;stroke-linecap:butt;stroke-width:0.5;" x="73.35" xlink:href="#mc8fcea1516" y="196.097142857"/>
      </g>
     </g>
     <g id="line2d_23">
      <g>
       <use style="stroke:#000000;stroke-linecap:butt;stroke-width:0.5;" x="280.063636364" xlink:href="#m0d5b0a6425" y="196.097142857"/>
      </g>
     </g>
     <g id="text_12">
      <!-- 0.30 -->
      <defs>
       <path d="
M40.5781 39.3125
Q47.6562 37.7969 51.625 33
Q55.6094 28.2188 55.6094 21.1875
Q55.6094 10.4062 48.1875 4.48438
Q40.7656 -1.42188 27.0938 -1.42188
Q22.5156 -1.42188 17.6562 -0.515625
Q12.7969 0.390625 7.625 2.20312
L7.625 11.7188
Q11.7188 9.32812 16.5938 8.10938
Q21.4844 6.89062 26.8125 6.89062
Q36.0781 6.89062 40.9375 10.5469
Q45.7969 14.2031 45.7969 21.1875
Q45.7969 27.6406 41.2812 31.2656
Q36.7656 34.9062 28.7188 34.9062
L20.2188 34.9062
L20.2188 43.0156
L29.1094 43.0156
Q36.375 43.0156 40.2344 45.9219
Q44.0938 48.8281 44.0938 54.2969
Q44.0938 59.9062 40.1094 62.9062
Q36.1406 65.9219 28.7188 65.9219
Q24.6562 65.9219 20.0156 65.0312
Q15.375 64.1562 9.8125 62.3125
L9.8125 71.0938
Q15.4375 72.6562 20.3438 73.4375
Q25.25 74.2188 29.5938 74.2188
Q40.8281 74.2188 47.3594 69.1094
Q53.9062 64.0156 53.9062 55.3281
Q53.9062 49.2656 50.4375 45.0938
Q46.9688 40.9219 40.5781 39.3125" id="BitstreamVeraSans-Roman-33"/>
      </defs>
      <g transform="translate(44.219375 200.464955357)scale(0.12 -0.12)">
       <use xlink:href="#BitstreamVeraSans-Roman-30"/>
       <use x="63.623046875" xlink:href="#BitstreamVeraSans-Roman-2e"/>
       <use x="95.41015625" xlink:href="#BitstreamVeraSans-Roman-33"/>
       <use x="159.033203125" xlink:href="#BitstreamVeraSans-Roman-30"/>
      </g>
     </g>
    </g>
    <g id="ytick_6">
     <g id="line2d_24">
      <g>
       <use style="stroke:#000000;stroke-linecap:butt;stroke-width:0.5;" x="73.35" xlink:href="#mc8fcea1516" y="145.491428571"/>
      </g>
     </g>
     <g id="line2d_25">
      <g>
       <use style="stroke:#000000;stroke-linecap:butt;stroke-width:0.5;" x="280.063636364" xlink:href="#m0d5b0a6425" y="145.491428571"/>
      </g>
     </g>
     <g id="text_13">
      <!-- 0.35 -->
      <g transform="translate(44.470625 149.859241071)scale(0.12 -0.12)">
       <use xlink:href="#BitstreamVeraSans-Roman-30"/>
       <use x="63.623046875" xlink:href="#BitstreamVeraSans-Roman-2e"/>
       <use x="95.41015625" xlink:href="#BitstreamVeraSans-Roman-33"/>
       <use x="159.033203125" xlink:href="#BitstreamVeraSans-Roman-35"/>
      </g>
     </g>
    </g>
    <g id="ytick_7">
     <g id="line2d_26">
      <g>
       <use style="stroke:#000000;stroke-linecap:butt;stroke-width:0.5;" x="73.35" xlink:href="#mc8fcea1516" y="94.8857142857"/>
      </g>
     </g>
     <g id="line2d_27">
      <g>
       <use style="stroke:#000000;stroke-linecap:butt;stroke-width:0.5;" x="280.063636364" xlink:href="#m0d5b0a6425" y="94.8857142857"/>
      </g>
     </g>
     <g id="text_14">
      <!-- 0.40 -->
      <g transform="translate(44.219375 99.2535267857)scale(0.12 -0.12)">
       <use xlink:href="#BitstreamVeraSans-Roman-30"/>
       <use x="63.623046875" xlink:href="#BitstreamVeraSans-Roman-2e"/>
       <use x="95.41015625" xlink:href="#BitstreamVeraSans-Roman-34"/>
       <use x="159.033203125" xlink:href="#BitstreamVeraSans-Roman-30"/>
      </g>
     </g>
    </g>
    <g id="ytick_8">
     <g id="line2d_28">
      <g>
       <use style="stroke:#000000;stroke-linecap:butt;stroke-width:0.5;" x="73.35" xlink:href="#mc8fcea1516" y="44.28"/>
      </g>
     </g>
     <g id="line2d_29">
      <g>
       <use style="stroke:#000000;stroke-linecap:butt;stroke-width:0.5;" x="280.063636364" xlink:href="#m0d5b0a6425" y="44.28"/>
      </g>
     </g>
     <g id="text_15">
      <!-- 0.45 -->
      <g transform="translate(44.470625 48.6478125)scale(0.12 -0.12)">
       <use xlink:href="#BitstreamVeraSans-Roman-30"/>
       <use x="63.623046875" xlink:href="#BitstreamVeraSans-Roman-2e"/>
       <use x="95.41015625" xlink:href="#BitstreamVeraSans-Roman-34"/>
       <use x="159.033203125" xlink:href="#BitstreamVeraSans-Roman-35"/>
      </g>
     </g>
    </g>
    <g id="text_16">
     <!-- Inverse error -->
     <defs>
      <path d="
M2.98438 54.6875
L12.5 54.6875
L29.5938 8.79688
L46.6875 54.6875
L56.2031 54.6875
L35.6875 0
L23.4844 0
z
" id="BitstreamVeraSans-Roman-76"/>
      <path id="BitstreamVeraSans-Roman-20"/>
     </defs>
     <g transform="translate(39.219375 259.75875)rotate(-90.0)scale(0.12 -0.12)">
      <use xlink:href="#BitstreamVeraSans-Roman-49"/>
      <use x="29.4921875" xlink:href="#BitstreamVeraSans-Roman-6e"/>
      <use x="92.87109375" xlink:href="#BitstreamVeraSans-Roman-76"/>
      <use x="152.05078125" xlink:href="#BitstreamVeraSans-Roman-65"/>
      <use x="213.57421875" xlink:href="#BitstreamVeraSans-Roman-72"/>
      <use x="254.6875" xlink:href="#BitstreamVeraSans-Roman-73"/>
      <use x="306.787109375" xlink:href="#BitstreamVeraSans-Roman-65"/>
      <use x="368.310546875" xlink:href="#BitstreamVeraSans-Roman-20"/>
      <use x="400.09765625" xlink:href="#BitstreamVeraSans-Roman-65"/>
      <use x="461.62109375" xlink:href="#BitstreamVeraSans-Roman-72"/>
      <use x="500.984375" xlink:href="#BitstreamVeraSans-Roman-72"/>
      <use x="539.84765625" xlink:href="#BitstreamVeraSans-Roman-6f"/>
      <use x="601.029296875" xlink:href="#BitstreamVeraSans-Roman-72"/>
     </g>
    </g>
   </g>
   <g id="patch_3">
    <path d="
M73.35 44.28
L280.064 44.28" style="fill:none;stroke:#000000;"/>
   </g>
   <g id="patch_4">
    <path d="
M280.064 398.52
L280.064 44.28" style="fill:none;stroke:#000000;"/>
   </g>
   <g id="patch_5">
    <path d="
M73.35 398.52
L280.064 398.52" style="fill:none;stroke:#000000;"/>
   </g>
   <g id="patch_6">
    <path d="
M73.35 398.52
L73.35 44.28" style="fill:none;stroke:#000000;"/>
   </g>
   <g id="text_17">
    <!-- Top individual error evolution -->
    <defs>
     <path d="
M45.4062 46.3906
L45.4062 75.9844
L54.3906 75.9844
L54.3906 0
L45.4062 0
L45.4062 8.20312
Q42.5781 3.32812 38.25 0.953125
Q33.9375 -1.42188 27.875 -1.42188
Q17.9688 -1.42188 11.7344 6.48438
Q5.51562 14.4062 5.51562 27.2969
Q5.51562 40.1875 11.7344 48.0938
Q17.9688 56 27.875 56
Q33.9375 56 38.25 53.625
Q42.5781 51.2656 45.4062 46.3906
M14.7969 27.2969
Q14.7969 17.3906 18.875 11.75
Q22.9531 6.10938 30.0781 6.10938
Q37.2031 6.10938 41.2969 11.75
Q45.4062 17.3906 45.4062 27.2969
Q45.4062 37.2031 41.2969 42.8438
Q37.2031 48.4844 30.0781 48.4844
Q22.9531 48.4844 18.875 42.8438
Q14.7969 37.2031 14.7969 27.2969" id="BitstreamVeraSans-Roman-64"/>
     <path d="
M8.5 21.5781
L8.5 54.6875
L17.4844 54.6875
L17.4844 21.9219
Q17.4844 14.1562 20.5 10.2656
Q23.5312 6.39062 29.5938 6.39062
Q36.8594 6.39062 41.0781 11.0312
Q45.3125 15.6719 45.3125 23.6875
L45.3125 54.6875
L54.2969 54.6875
L54.2969 0
L45.3125 0
L45.3125 8.40625
Q42.0469 3.42188 37.7188 1
Q33.4062 -1.42188 27.6875 -1.42188
Q18.2656 -1.42188 13.375 4.4375
Q8.5 10.2969 8.5 21.5781" id="BitstreamVeraSans-Roman-75"/>
     <path d="
M-0.296875 72.9062
L61.375 72.9062
L61.375 64.5938
L35.5 64.5938
L35.5 0
L25.5938 0
L25.5938 64.5938
L-0.296875 64.5938
z
" id="BitstreamVeraSans-Roman-54"/>
     <path d="
M9.42188 75.9844
L18.4062 75.9844
L18.4062 0
L9.42188 0
z
" id="BitstreamVeraSans-Roman-6c"/>
     <path d="
M18.1094 8.20312
L18.1094 -20.7969
L9.07812 -20.7969
L9.07812 54.6875
L18.1094 54.6875
L18.1094 46.3906
Q20.9531 51.2656 25.2656 53.625
Q29.5938 56 35.5938 56
Q45.5625 56 51.7812 48.0938
Q58.0156 40.1875 58.0156 27.2969
Q58.0156 14.4062 51.7812 6.48438
Q45.5625 -1.42188 35.5938 -1.42188
Q29.5938 -1.42188 25.2656 0.953125
Q20.9531 3.32812 18.1094 8.20312
M48.6875 27.2969
Q48.6875 37.2031 44.6094 42.8438
Q40.5312 48.4844 33.4062 48.4844
Q26.2656 48.4844 22.1875 42.8438
Q18.1094 37.2031 18.1094 27.2969
Q18.1094 17.3906 22.1875 11.75
Q26.2656 6.10938 33.4062 6.10938
Q40.5312 6.10938 44.6094 11.75
Q48.6875 17.3906 48.6875 27.2969" id="BitstreamVeraSans-Roman-70"/>
    </defs>
    <g transform="translate(72.4598181818 39.28)scale(0.144 -0.144)">
     <use xlink:href="#BitstreamVeraSans-Roman-54"/>
     <use x="44.083984375" xlink:href="#BitstreamVeraSans-Roman-6f"/>
     <use x="105.265625" xlink:href="#BitstreamVeraSans-Roman-70"/>
     <use x="168.7421875" xlink:href="#BitstreamVeraSans-Roman-20"/>
     <use x="200.529296875" xlink:href="#BitstreamVeraSans-Roman-69"/>
     <use x="228.3125" xlink:href="#BitstreamVeraSans-Roman-6e"/>
     <use x="291.69140625" xlink:href="#BitstreamVeraSans-Roman-64"/>
     <use x="355.16796875" xlink:href="#BitstreamVeraSans-Roman-69"/>
     <use x="382.951171875" xlink:href="#BitstreamVeraSans-Roman-76"/>
     <use x="442.130859375" xlink:href="#BitstreamVeraSans-Roman-69"/>
     <use x="469.9140625" xlink:href="#BitstreamVeraSans-Roman-64"/>
     <use x="533.390625" xlink:href="#BitstreamVeraSans-Roman-75"/>
     <use x="596.76953125" xlink:href="#BitstreamVeraSans-Roman-61"/>
     <use x="658.048828125" xlink:href="#BitstreamVeraSans-Roman-6c"/>
     <use x="685.83203125" xlink:href="#BitstreamVeraSans-Roman-20"/>
     <use x="717.619140625" xlink:href="#BitstreamVeraSans-Roman-65"/>
     <use x="779.142578125" xlink:href="#BitstreamVeraSans-Roman-72"/>
     <use x="818.505859375" xlink:href="#BitstreamVeraSans-Roman-72"/>
     <use x="857.369140625" xlink:href="#BitstreamVeraSans-Roman-6f"/>
     <use x="918.55078125" xlink:href="#BitstreamVeraSans-Roman-72"/>
     <use x="959.6640625" xlink:href="#BitstreamVeraSans-Roman-20"/>
     <use x="991.451171875" xlink:href="#BitstreamVeraSans-Roman-65"/>
     <use x="1052.97460938" xlink:href="#BitstreamVeraSans-Roman-76"/>
     <use x="1112.15429688" xlink:href="#BitstreamVeraSans-Roman-6f"/>
     <use x="1173.3359375" xlink:href="#BitstreamVeraSans-Roman-6c"/>
     <use x="1201.11914062" xlink:href="#BitstreamVeraSans-Roman-75"/>
     <use x="1264.49804688" xlink:href="#BitstreamVeraSans-Roman-74"/>
     <use x="1303.70703125" xlink:href="#BitstreamVeraSans-Roman-69"/>
     <use x="1331.49023438" xlink:href="#BitstreamVeraSans-Roman-6f"/>
     <use x="1392.671875" xlink:href="#BitstreamVeraSans-Roman-6e"/>
    </g>
   </g>
  </g>
  <g id="axes_2">
   <g id="patch_7">
    <path d="
M321.406 398.52
L528.12 398.52
L528.12 44.28
L321.406 44.28
z
" style="fill:#ffffff;"/>
   </g>
   <g id="line2d_30">
    <path clip-path="url(#p9b6814814e)" d="
M321.406 346.932
L321.613 337.292
L321.82 336.577
L322.027 330.77
L322.233 329.135
L322.44 328.422
L323.06 313.997
L323.267 308.275
L323.473 308.688
L323.887 284.193
L324.094 292.854
L324.3 295.795
L324.507 302.38
L324.714 289.934
L324.92 290.787
L325.127 298.431
L325.334 273.191
L325.541 290.301
L325.747 274.591
L325.954 287.672
L326.161 287.464
L326.367 268.771
L326.988 284.918
L327.194 267.824
L327.401 271.166
L327.608 259.601
L327.814 254.851
L328.021 274.95
L328.228 268.663
L328.435 252.575
L328.641 259.938
L328.848 239.46
L329.261 257.917
L329.468 247.717
L329.882 266.487
L330.295 246.18
L330.502 271.536
L330.708 253.648
L330.915 225.51
L331.122 249.494
L331.329 255.907
L331.535 232.109
L331.742 263.762
L332.155 225.651
L332.362 237.436
L332.569 222.219
L332.776 216.559
L332.982 220.03
L333.189 219.653
L333.396 221.986
L333.602 231.662
L333.809 221.232
L334.016 201.171
L334.223 212.932
L334.429 217.247
L334.636 227.293
L334.843 228.032
L335.049 227.156
L335.256 221.131
L335.463 234
L335.67 217.754
L335.876 239.594
L336.083 205.399
L336.29 224.201
L336.496 207.206
L336.703 221.46
L336.91 211.502
L337.117 215.081
L337.53 232.561
L337.737 208.277
L337.943 221.918
L338.357 191.892
L338.564 211.631
L338.77 219.717
L338.977 199.327
L339.184 222.487
L339.39 216.88
L339.597 215.403
L339.804 231.622
L340.011 233.521
L340.217 221.477
L340.424 223.643
L340.631 230.001
L340.837 204.489
L341.044 228.859
L341.251 223.252
L341.458 229.262
L341.664 227.48
L341.871 214.943
L342.078 224.216
L342.284 219.464
L342.491 220.871
L342.698 207.184
L343.111 223.504
L343.318 223.238
L343.525 231.132
L343.731 199.163
L343.938 214.769
L344.145 217.279
L344.352 201.329
L344.558 196.269
L344.765 218.081
L344.972 222.152
L345.178 202.645
L345.385 196.432
L345.592 219.092
L345.799 206.546
L346.212 214.867
L346.419 199.726
L346.625 224.738
L346.832 226.272
L347.039 226.432
L347.246 232.783
L347.452 183.916
L347.659 221.375
L347.866 225.791
L348.072 207.055
L348.279 227.056
L348.486 206.837
L348.693 217.194
L348.899 203.925
L349.313 218.489
L349.519 212.502
L349.726 189.13
L349.933 224.073
L350.14 184.894
L350.553 207.915
L350.76 187.141
L350.966 191.002
L351.173 231.138
L351.38 206.664
L351.587 203.176
L351.793 222.104
L352 193.293
L352.207 231.602
L352.413 216.141
L352.62 176.872
L352.827 172.278
L353.034 219.073
L353.24 187.893
L353.447 208.616
L353.654 202.984
L353.86 203.063
L354.067 213.326
L354.274 174.93
L354.481 225.385
L354.687 203.908
L354.894 196.156
L355.101 226.325
L355.307 179.295
L355.514 202.357
L355.721 202.022
L355.928 169.892
L356.341 205.762
L356.548 222.862
L356.754 182.731
L357.168 212.988
L357.375 209.531
L357.581 176.577
L357.788 177.421
L357.995 206.833
L358.408 199.999
L358.822 208.685
L359.028 210.778
L359.235 191.224
L359.442 222.832
L359.855 188.321
L360.062 188.563
L360.269 214.696
L360.475 207.315
L360.682 212.599
L360.889 209.448
L361.095 209.443
L361.302 204.213
L361.716 211.18
L361.922 182.801
L362.129 197.506
L362.336 186.084
L362.542 205.97
L362.749 212.358
L362.956 213.695
L363.163 221.07
L363.369 208.788
L363.576 223.174
L363.783 197.517
L363.989 216.25
L364.196 197.575
L364.61 220.022
L364.816 166.236
L365.023 227.828
L365.23 210.953
L365.436 208.553
L365.643 188.267
L365.85 183.936
L366.057 210.592
L366.263 196.965
L366.47 205.414
L366.677 207.299
L366.883 218.206
L367.09 204.459
L367.297 209.502
L367.504 202.694
L367.71 177.945
L367.917 186.091
L368.33 229.942
L368.537 189.187
L368.744 191.28
L368.95 215.23
L369.157 223.116
L369.571 181.499
L369.777 197.893
L369.984 204.742
L370.191 184.468
L370.397 192.187
L370.604 174.865
L370.811 204.595
L371.018 199.207
L371.224 202.782
L371.431 170.309
L371.638 220.777
L371.844 205.139
L372.051 201.286
L372.258 183.094
L372.465 218.16
L372.671 210.9
L372.878 182.837
L373.085 188.211
L373.291 198.147
L373.498 213.778
L373.705 205.581
L373.912 232.671
L374.532 195.247
L374.738 215.236
L374.945 223.413
L375.152 191.863
L375.359 199.527
L375.565 196.455
L375.772 202.896
L375.979 217.987
L376.185 198.615
L376.392 197.964
L376.599 194.14
L376.806 194.197
L377.012 207.492
L377.219 186.989
L377.632 215.137
L377.839 190.82
L378.046 217.77
L378.253 217.799
L378.459 218.644
L378.666 213.172
L378.873 198.128
L379.079 200.827
L379.286 197.144
L379.493 203.942
L379.7 205.333
L379.906 199
L380.113 179.917
L380.32 204.49
L380.526 191.629
L380.733 197.707
L380.94 225.706
L381.147 179.872
L381.353 206.043
L381.56 194.44
L381.767 203.271
L381.973 149.901
L382.18 204.317
L382.387 179.333
L382.594 195.004
L382.8 199.136
L383.007 170.014
L383.214 199.377
L383.42 193.207
L383.834 188.717
L384.041 169.276
L384.247 188.226
L384.454 187.462
L384.661 194.781
L384.867 186.645
L385.281 211.169
L385.488 195.084
L385.694 151.899
L385.901 176.469
L386.108 138.9
L386.314 186.003
L386.521 188.475
L386.728 172.189
L386.935 203.899
L387.141 185.726
L387.348 194.671
L387.555 155.472
L387.968 129.955
L388.175 190.179
L388.382 183.964
L388.795 152.678
L389.002 179.51
L389.208 167.328
L389.415 206.297
L389.622 182.993
L389.829 211.431
L390.035 211.85
L390.449 165.662
L390.655 185.259
L390.862 146.042
L391.069 166.937
L391.276 170.27
L391.482 171.682
L391.689 197.093
L391.896 149.011
L392.102 154.959
L392.309 202.696
L392.516 158.122
L392.723 183.639
L392.929 155.224
L393.136 184.343
L393.343 175.568
L393.549 152.814
L393.756 158.801
L393.963 149.527
L394.17 176.69
L394.376 167.247
L394.583 187.666
L394.79 162.961
L394.996 190.48
L395.203 154.733
L395.41 201.373
L395.617 160.281
L395.823 193.518
L396.03 177.83
L396.237 179.686
L396.443 174.826
L396.65 150.914
L396.857 180.139
L397.064 189.554
L397.27 178.242
L397.477 188.501
L397.684 171.55
L397.89 128.98
L398.097 193.611
L398.304 148.554
L398.511 182.631
L398.717 151.177
L399.131 167.115
L399.337 190.207
L399.751 141.195
L400.164 188.602
L400.371 161.888
L400.578 180.437
L400.784 170.648
L400.991 181.792
L401.405 137.598
L401.611 154.238
L401.818 143.551
L402.025 149.706
L402.231 161.358
L402.438 156.32
L402.645 158.07
L402.852 181.814
L403.058 126.374
L403.265 148.121
L403.472 154.666
L403.678 134.003
L403.885 191.331
L404.299 159.047
L404.505 163.167
L404.919 180.623
L405.125 125.064
L405.332 160.101
L405.539 166.393
L405.746 142.629
L405.952 193.301
L406.159 101.272
L406.366 130.394
L406.572 185.536
L406.779 168.172
L406.986 178.865
L407.193 174.472
L407.399 139.047
L407.606 154.725
L407.813 158.274
L408.019 158.908
L408.433 139.002
L408.64 142.901
L408.846 161.057
L409.053 132.821
L409.26 122.103
L409.673 168.714
L409.88 167.549
L410.087 128.136
L410.293 172.606
L410.5 159.018
L410.707 167.724
L410.913 161.762
L411.12 146.347
L411.327 155.241
L411.534 143.31
L411.74 115.125
L412.154 177.033
L412.36 128.945
L412.774 167.036
L412.981 163.067
L413.394 138.17
L413.601 146.114
L413.807 131.965
L414.014 159.335
L414.221 164.513
L414.428 160.777
L414.634 129.288
L414.841 160.223
L415.048 161.496
L415.254 181.368
L415.461 156.953
L415.668 153.824
L415.874 142.947
L416.288 182.007
L416.495 183.946
L416.701 153.594
L416.908 149.198
L417.115 141.532
L417.321 165.033
L417.528 166.805
L417.735 158.153
L417.942 135.943
L418.355 176.493
L418.562 168.672
L418.768 192.09
L418.975 164.374
L419.182 181.275
L419.595 172.586
L420.009 127.997
L420.215 151.509
L420.422 137.339
L420.629 185.365
L420.836 138.09
L421.042 141.541
L421.249 162.436
L421.456 130.333
L421.662 175.881
L421.869 161.763
L422.076 163.504
L422.283 121.987
L422.489 172.794
L422.903 149.723
L423.109 168.498
L423.316 168.885
L423.523 146.506
L423.73 142.771
L423.936 167.938
L424.143 155.153
L424.35 173.669
L424.556 119.715
L424.763 174.482
L425.177 176.998
L425.383 173.423
L425.59 149.618
L425.797 151.109
L426.003 155.813
L426.21 178.547
L426.417 188.707
L426.83 130.64
L427.037 171.806
L427.244 181.725
L427.45 125.976
L427.657 142.967
L427.864 143.029
L428.071 178.641
L428.484 140.896
L428.691 175.546
L428.897 163.294
L429.104 176.468
L429.518 134.035
L429.724 161.963
L429.931 165.693
L430.344 175.196
L430.758 136.498
L430.965 170.108
L431.378 166.208
L431.585 170.993
L431.791 142.78
L431.998 145.368
L432.205 150.997
L432.412 143.974
L432.618 177.343
L432.825 162.869
L433.032 165.21
L433.238 179.506
L433.652 168.2
L433.859 124.563
L434.065 160.835
L434.272 144.621
L434.479 156.154
L434.685 156.29
L434.892 134.484
L435.306 173.73
L435.512 145.601
L435.719 161.213
L436.339 127.265
L436.546 162.277
L436.753 153.682
L436.959 122.424
L437.166 123.502
L437.373 127.837
L437.579 151.822
L437.786 149.859
L437.993 136.25
L438.2 150.631
L438.406 134.856
L438.613 158.11
L438.82 111.67
L439.233 165.277
L439.44 132.843
L439.853 168.037
L440.06 141.888
L440.267 143.971
L440.473 149.997
L440.68 137.566
L440.887 179.389
L441.094 172.616
L441.3 145.208
L441.507 138.38
L441.714 148.709
L441.92 176.595
L442.127 109.22
L442.334 113.746
L442.541 167.399
L442.747 139.779
L442.954 144.655
L443.161 154.822
L443.367 158.686
L443.574 157.636
L443.781 139.257
L443.988 179.709
L444.401 156.136
L444.608 132.903
L444.814 137.927
L445.021 138.048
L445.228 161.535
L445.435 148.078
L445.641 152.714
L445.848 138.288
L446.261 161.983
L446.468 148.335
L446.675 175.318
L446.882 127.372
L447.295 150.508
L447.502 142.982
L447.708 130.729
L447.915 136.782
L448.122 162.597
L448.329 171.232
L448.535 113.104
L449.155 177.838
L449.362 165.734
L449.569 111.668
L449.776 166.767
L449.982 159.409
L450.189 176.869
L450.396 150.388
L450.602 183.479
L450.809 169.528
L451.016 137.364
L451.223 144.432
L451.429 164.892
L451.636 132.488
L451.843 165.139
L452.049 166.032
L452.256 126.192
L452.463 187.938
L452.876 143.025
L453.083 146.537
L453.29 161.495
L453.496 144.6
L453.703 165.503
L453.91 146.352
L454.117 176.534
L454.53 121.234
L454.737 164.558
L454.943 135.297
L455.15 127.028
L455.357 180.417
L455.564 154.58
L455.77 175.955
L455.977 173.481
L456.184 153.984
L456.39 147.845
L456.597 160.426
L457.011 122.999
L457.217 155.789
L457.424 164.152
L457.837 116.966
L458.044 167.418
L458.251 119.368
L458.458 161.826
L458.664 167.862
L458.871 138.445
L459.078 186.935
L459.284 131.883
L459.491 168.106
L459.698 155.163
L459.904 133.51
L460.111 157.937
L460.318 166.066
L460.525 158.538
L460.731 110.113
L460.938 140.906
L461.145 142.877
L461.351 166.998
L461.558 157.456
L461.765 154.856
L462.178 157.734
L462.385 123.301
L462.592 152.991
L462.798 130.826
L463.005 162.396
L463.212 140.487
L463.419 159.322
L463.625 155.752
L463.832 168.535
L464.039 129.054
L464.245 156.338
L464.452 156.363
L464.866 136.501
L465.072 137.234
L465.279 160.883
L465.486 146.798
L465.692 147.766
L465.899 182.713
L466.106 167.729
L466.313 108.895
L466.726 154.199
L466.933 133.814
L467.139 154.855
L467.346 139.646
L467.553 169.654
L467.76 133.846
L467.966 163.34
L468.173 123.948
L468.38 134.15
L468.586 132.196
L468.793 164.44
L469 133.999
L469.207 149.633
L469.413 140.725
L469.62 160.508
L470.033 173.924
L470.24 167.234
L470.654 149.456
L471.067 164.373
L471.274 94.7542
L471.48 106.564
L471.687 169.011
L471.894 154.698
L472.101 165.726
L472.307 152.082
L472.514 156.128
L472.927 126.963
L473.134 174.905
L473.341 157.971
L473.548 165.326
L473.754 149.556
L473.961 144.781
L474.168 157.743
L474.374 141.063
L474.581 156.094
L474.788 140.403
L474.995 140.273
L475.201 157.709
L475.408 160.959
L475.615 153.826
L475.821 153.064
L476.028 133.629
L476.235 145.435
L476.442 168.184
L476.648 167.361
L476.855 139.456
L477.062 131.614
L477.268 142.183
L477.475 122.01
L477.889 147.225
L478.095 149.14
L478.302 155.358
L478.509 174.713
L478.715 168.144
L478.922 183.546
L479.129 159.863
L479.336 163.97
L479.542 172.262
L479.749 138.72
L479.956 164.126
L480.162 148.197
L480.576 176.637
L480.989 151.027
L481.196 147.797
L481.609 111.159
L482.023 169.395
L482.23 131.98
L482.436 143.948
L482.643 127.521
L482.85 159.324
L483.056 139.296
L483.263 155.712
L483.47 160.686
L483.677 141.726
L483.883 144.861
L484.09 144.874
L484.297 150.571
L484.503 174.198
L484.71 177.511
L485.124 137.734
L485.33 169.102
L485.537 172.836
L485.744 156.465
L485.95 160.913
L486.157 185.93
L486.364 147.143
L486.777 174.774
L486.984 151.43
L487.191 162.563
L487.397 147.476
L487.604 158.183
L488.018 155.474
L488.431 169.493
L488.638 110.536
L488.844 143.423
L489.051 117.025
L489.258 139.135
L489.465 183.954
L489.671 157.439
L489.878 150.741
L490.085 94.7436
L490.291 172.764
L490.498 172.049
L490.705 140.194
L490.912 137.059
L491.325 157.077
L491.532 186.598
L491.738 141.517
L491.945 133.192
L492.152 151.783
L492.359 141.4
L492.565 153.003
L492.772 157.978
L492.979 138.195
L493.185 157.661
L493.392 139.923
L493.599 165.67
L493.806 137.507
L494.012 130.559
L494.219 166.979
L494.426 168.572
L494.632 165.778
L494.839 117.857
L495.046 147.614
L495.253 154.456
L495.459 151.658
L495.666 122.896
L495.873 167.048
L496.079 160.357
L496.286 106.031
L496.493 158.622
L496.7 139.019
L496.906 171.172
L497.113 139.797
L497.32 138.069
L497.526 145.645
L497.733 165.385
L498.147 152.311
L498.353 141.388
L498.56 144.099
L498.767 182.9
L498.973 183.926
L499.18 166.784
L499.387 77.3233
L499.594 165.79
L499.8 166.701
L500.007 139.097
L500.214 127.009
L500.42 137.678
L500.627 112.371
L500.834 157.104
L501.041 165.746
L501.247 119.785
L501.454 147.713
L501.661 136.394
L501.867 152.28
L502.074 148.644
L502.281 152.549
L502.488 124.18
L502.901 159.905
L503.108 159.902
L503.521 186.443
L503.728 104.031
L503.935 122.415
L504.141 124.216
L504.348 154.5
L504.555 128.891
L504.761 144.748
L504.968 127.23
L505.175 148.237
L505.382 151.299
L505.588 167.093
L505.795 134.3
L506.002 163.786
L506.208 137.842
L506.415 172.305
L506.622 106.008
L506.828 132.087
L507.035 134.011
L507.242 175.184
L507.449 168.187
L507.655 142.072
L507.862 160.743
L508.069 143.876
L508.275 142.08
L508.482 159.569
L508.689 163.123
L508.896 157.959
L509.102 170.774
L509.309 156.735
L509.516 117.622
L509.722 177.402
L509.929 172.878
L510.136 154.618
L510.343 165.569
L510.756 116.885
L510.963 161.194
L511.169 150.865
L511.376 158.86
L511.583 127.623
L511.79 138
L511.996 131.088
L512.203 170.536
L512.823 126.225
L513.443 151.186
L513.65 131.186
L513.857 179.817
L514.063 166.24
L514.477 124.853
L514.684 176.685
L515.304 125.366
L515.51 126.401
L515.717 130.227
L515.924 167.505
L516.131 151.689
L516.544 163.962
L516.751 148.791
L516.957 170.415
L517.164 171.494
L517.371 159.27
L517.578 113.268
L517.784 141.292
L517.991 123.515
L518.198 183.446
L518.404 160.826
L518.611 158.019
L518.818 135.813
L519.025 171.871
L519.231 133.796
L519.645 160.653
L519.851 130.689
L520.058 157.076
L520.472 176.865
L520.678 187.518
L520.885 151.918
L521.092 157.787
L521.298 184.688
L521.505 181.93
L521.712 170.562
L521.919 129.252
L522.125 158.249
L522.332 124.032
L522.539 154.331
L522.745 114.473
L522.952 159.394
L523.366 107.251
L523.572 114.816
L523.779 141.475
L523.986 122.001
L524.399 174.624
L524.606 154.903
L524.813 168.231
L525.019 129.908
L525.226 133.573
L525.639 147.111
L526.053 119.241
L526.26 127.274
L526.466 125.779
L526.673 116.91
L526.88 148.219
L527.086 161.49
L527.293 150.938
L527.5 171.373
L527.707 168.23
L527.913 174.955
L527.913 174.955" style="fill:none;stroke:#008000;"/>
   </g>
   <g id="matplotlib.axis_3">
    <g id="xtick_7">
     <g id="line2d_31">
      <g>
       <use style="stroke:#000000;stroke-linecap:butt;stroke-width:0.5;" x="321.406363636" xlink:href="#mcb557df647" y="398.52"/>
      </g>
     </g>
     <g id="line2d_32">
      <g>
       <use style="stroke:#000000;stroke-linecap:butt;stroke-width:0.5;" x="321.406363636" xlink:href="#mdad270ee8e" y="44.28"/>
      </g>
     </g>
     <g id="text_18">
      <!-- 0 -->
      <g transform="translate(318.382926136 411.42625)scale(0.12 -0.12)">
       <use xlink:href="#BitstreamVeraSans-Roman-30"/>
      </g>
     </g>
    </g>
    <g id="xtick_8">
     <g id="line2d_33">
      <g>
       <use style="stroke:#000000;stroke-linecap:butt;stroke-width:0.5;" x="362.749090909" xlink:href="#mcb557df647" y="398.52"/>
      </g>
     </g>
     <g id="line2d_34">
      <g>
       <use style="stroke:#000000;stroke-linecap:butt;stroke-width:0.5;" x="362.749090909" xlink:href="#mdad270ee8e" y="44.28"/>
      </g>
     </g>
     <g id="text_19">
      <!-- 200 -->
      <g transform="translate(352.134715909 411.42625)scale(0.12 -0.12)">
       <use xlink:href="#BitstreamVeraSans-Roman-32"/>
       <use x="63.623046875" xlink:href="#BitstreamVeraSans-Roman-30"/>
       <use x="127.24609375" xlink:href="#BitstreamVeraSans-Roman-30"/>
      </g>
     </g>
    </g>
    <g id="xtick_9">
     <g id="line2d_35">
      <g>
       <use style="stroke:#000000;stroke-linecap:butt;stroke-width:0.5;" x="404.091818182" xlink:href="#mcb557df647" y="398.52"/>
      </g>
     </g>
     <g id="line2d_36">
      <g>
       <use style="stroke:#000000;stroke-linecap:butt;stroke-width:0.5;" x="404.091818182" xlink:href="#mdad270ee8e" y="44.28"/>
      </g>
     </g>
     <g id="text_20">
      <!-- 400 -->
      <g transform="translate(393.331193182 411.42625)scale(0.12 -0.12)">
       <use xlink:href="#BitstreamVeraSans-Roman-34"/>
       <use x="63.623046875" xlink:href="#BitstreamVeraSans-Roman-30"/>
       <use x="127.24609375" xlink:href="#BitstreamVeraSans-Roman-30"/>
      </g>
     </g>
    </g>
    <g id="xtick_10">
     <g id="line2d_37">
      <g>
       <use style="stroke:#000000;stroke-linecap:butt;stroke-width:0.5;" x="445.434545455" xlink:href="#mcb557df647" y="398.52"/>
      </g>
     </g>
     <g id="line2d_38">
      <g>
       <use style="stroke:#000000;stroke-linecap:butt;stroke-width:0.5;" x="445.434545455" xlink:href="#mdad270ee8e" y="44.28"/>
      </g>
     </g>
     <g id="text_21">
      <!-- 600 -->
      <g transform="translate(434.799545455 411.42625)scale(0.12 -0.12)">
       <use xlink:href="#BitstreamVeraSans-Roman-36"/>
       <use x="63.623046875" xlink:href="#BitstreamVeraSans-Roman-30"/>
       <use x="127.24609375" xlink:href="#BitstreamVeraSans-Roman-30"/>
      </g>
     </g>
    </g>
    <g id="xtick_11">
     <g id="line2d_39">
      <g>
       <use style="stroke:#000000;stroke-linecap:butt;stroke-width:0.5;" x="486.777272727" xlink:href="#mcb557df647" y="398.52"/>
      </g>
     </g>
     <g id="line2d_40">
      <g>
       <use style="stroke:#000000;stroke-linecap:butt;stroke-width:0.5;" x="486.777272727" xlink:href="#mdad270ee8e" y="44.28"/>
      </g>
     </g>
     <g id="text_22">
      <!-- 800 -->
      <g transform="translate(476.130085227 411.42625)scale(0.12 -0.12)">
       <use xlink:href="#BitstreamVeraSans-Roman-38"/>
       <use x="63.623046875" xlink:href="#BitstreamVeraSans-Roman-30"/>
       <use x="127.24609375" xlink:href="#BitstreamVeraSans-Roman-30"/>
      </g>
     </g>
    </g>
    <g id="xtick_12">
     <g id="line2d_41">
      <g>
       <use style="stroke:#000000;stroke-linecap:butt;stroke-width:0.5;" x="528.12" xlink:href="#mcb557df647" y="398.52"/>
      </g>
     </g>
     <g id="line2d_42">
      <g>
       <use style="stroke:#000000;stroke-linecap:butt;stroke-width:0.5;" x="528.12" xlink:href="#mdad270ee8e" y="44.28"/>
      </g>
     </g>
     <g id="text_23">
      <!-- 1000 -->
      <g transform="translate(513.9075 411.42625)scale(0.12 -0.12)">
       <use xlink:href="#BitstreamVeraSans-Roman-31"/>
       <use x="63.623046875" xlink:href="#BitstreamVeraSans-Roman-30"/>
       <use x="127.24609375" xlink:href="#BitstreamVeraSans-Roman-30"/>
       <use x="190.869140625" xlink:href="#BitstreamVeraSans-Roman-30"/>
      </g>
     </g>
    </g>
    <g id="text_24">
     <!-- Iterations -->
     <g transform="translate(397.068494318 425.715)scale(0.12 -0.12)">
      <use xlink:href="#BitstreamVeraSans-Roman-49"/>
      <use x="29.4921875" xlink:href="#BitstreamVeraSans-Roman-74"/>
      <use x="68.701171875" xlink:href="#BitstreamVeraSans-Roman-65"/>
      <use x="130.224609375" xlink:href="#BitstreamVeraSans-Roman-72"/>
      <use x="171.337890625" xlink:href="#BitstreamVeraSans-Roman-61"/>
      <use x="232.6171875" xlink:href="#BitstreamVeraSans-Roman-74"/>
      <use x="271.826171875" xlink:href="#BitstreamVeraSans-Roman-69"/>
      <use x="299.609375" xlink:href="#BitstreamVeraSans-Roman-6f"/>
      <use x="360.791015625" xlink:href="#BitstreamVeraSans-Roman-6e"/>
      <use x="424.169921875" xlink:href="#BitstreamVeraSans-Roman-73"/>
     </g>
    </g>
   </g>
   <g id="matplotlib.axis_4">
    <g id="ytick_9">
     <g id="line2d_43">
      <g>
       <use style="stroke:#000000;stroke-linecap:butt;stroke-width:0.5;" x="321.406363636" xlink:href="#mc8fcea1516" y="398.52"/>
      </g>
     </g>
     <g id="line2d_44">
      <g>
       <use style="stroke:#000000;stroke-linecap:butt;stroke-width:0.5;" x="528.12" xlink:href="#m0d5b0a6425" y="398.52"/>
      </g>
     </g>
     <g id="text_25">
      <!-- 0.00 -->
      <g transform="translate(292.275738636 402.8878125)scale(0.12 -0.12)">
       <use xlink:href="#BitstreamVeraSans-Roman-30"/>
       <use x="63.623046875" xlink:href="#BitstreamVeraSans-Roman-2e"/>
       <use x="95.41015625" xlink:href="#BitstreamVeraSans-Roman-30"/>
       <use x="159.033203125" xlink:href="#BitstreamVeraSans-Roman-30"/>
      </g>
     </g>
    </g>
    <g id="ytick_10">
     <g id="line2d_45">
      <g>
       <use style="stroke:#000000;stroke-linecap:butt;stroke-width:0.5;" x="321.406363636" xlink:href="#mc8fcea1516" y="339.48"/>
      </g>
     </g>
     <g id="line2d_46">
      <g>
       <use style="stroke:#000000;stroke-linecap:butt;stroke-width:0.5;" x="528.12" xlink:href="#m0d5b0a6425" y="339.48"/>
      </g>
     </g>
     <g id="text_26">
      <!-- 0.02 -->
      <g transform="translate(292.680738636 343.8478125)scale(0.12 -0.12)">
       <use xlink:href="#BitstreamVeraSans-Roman-30"/>
       <use x="63.623046875" xlink:href="#BitstreamVeraSans-Roman-2e"/>
       <use x="95.41015625" xlink:href="#BitstreamVeraSans-Roman-30"/>
       <use x="159.033203125" xlink:href="#BitstreamVeraSans-Roman-32"/>
      </g>
     </g>
    </g>
    <g id="ytick_11">
     <g id="line2d_47">
      <g>
       <use style="stroke:#000000;stroke-linecap:butt;stroke-width:0.5;" x="321.406363636" xlink:href="#mc8fcea1516" y="280.44"/>
      </g>
     </g>
     <g id="line2d_48">
      <g>
       <use style="stroke:#000000;stroke-linecap:butt;stroke-width:0.5;" x="528.12" xlink:href="#m0d5b0a6425" y="280.44"/>
      </g>
     </g>
     <g id="text_27">
      <!-- 0.04 -->
      <g transform="translate(292.151988636 284.8078125)scale(0.12 -0.12)">
       <use xlink:href="#BitstreamVeraSans-Roman-30"/>
       <use x="63.623046875" xlink:href="#BitstreamVeraSans-Roman-2e"/>
       <use x="95.41015625" xlink:href="#BitstreamVeraSans-Roman-30"/>
       <use x="159.033203125" xlink:href="#BitstreamVeraSans-Roman-34"/>
      </g>
     </g>
    </g>
    <g id="ytick_12">
     <g id="line2d_49">
      <g>
       <use style="stroke:#000000;stroke-linecap:butt;stroke-width:0.5;" x="321.406363636" xlink:href="#mc8fcea1516" y="221.4"/>
      </g>
     </g>
     <g id="line2d_50">
      <g>
       <use style="stroke:#000000;stroke-linecap:butt;stroke-width:0.5;" x="528.12" xlink:href="#m0d5b0a6425" y="221.4"/>
      </g>
     </g>
     <g id="text_28">
      <!-- 0.06 -->
      <g transform="translate(292.234488636 225.7678125)scale(0.12 -0.12)">
       <use xlink:href="#BitstreamVeraSans-Roman-30"/>
       <use x="63.623046875" xlink:href="#BitstreamVeraSans-Roman-2e"/>
       <use x="95.41015625" xlink:href="#BitstreamVeraSans-Roman-30"/>
       <use x="159.033203125" xlink:href="#BitstreamVeraSans-Roman-36"/>
      </g>
     </g>
    </g>
    <g id="ytick_13">
     <g id="line2d_51">
      <g>
       <use style="stroke:#000000;stroke-linecap:butt;stroke-width:0.5;" x="321.406363636" xlink:href="#mc8fcea1516" y="162.36"/>
      </g>
     </g>
     <g id="line2d_52">
      <g>
       <use style="stroke:#000000;stroke-linecap:butt;stroke-width:0.5;" x="528.12" xlink:href="#m0d5b0a6425" y="162.36"/>
      </g>
     </g>
     <g id="text_29">
      <!-- 0.08 -->
      <g transform="translate(292.300113636 166.7278125)scale(0.12 -0.12)">
       <use xlink:href="#BitstreamVeraSans-Roman-30"/>
       <use x="63.623046875" xlink:href="#BitstreamVeraSans-Roman-2e"/>
       <use x="95.41015625" xlink:href="#BitstreamVeraSans-Roman-30"/>
       <use x="159.033203125" xlink:href="#BitstreamVeraSans-Roman-38"/>
      </g>
     </g>
    </g>
    <g id="ytick_14">
     <g id="line2d_53">
      <g>
       <use style="stroke:#000000;stroke-linecap:butt;stroke-width:0.5;" x="321.406363636" xlink:href="#mc8fcea1516" y="103.32"/>
      </g>
     </g>
     <g id="line2d_54">
      <g>
       <use style="stroke:#000000;stroke-linecap:butt;stroke-width:0.5;" x="528.12" xlink:href="#m0d5b0a6425" y="103.32"/>
      </g>
     </g>
     <g id="text_30">
      <!-- 0.10 -->
      <g transform="translate(292.275738636 107.6878125)scale(0.12 -0.12)">
       <use xlink:href="#BitstreamVeraSans-Roman-30"/>
       <use x="63.623046875" xlink:href="#BitstreamVeraSans-Roman-2e"/>
       <use x="95.41015625" xlink:href="#BitstreamVeraSans-Roman-31"/>
       <use x="159.033203125" xlink:href="#BitstreamVeraSans-Roman-30"/>
      </g>
     </g>
    </g>
    <g id="ytick_15">
     <g id="line2d_55">
      <g>
       <use style="stroke:#000000;stroke-linecap:butt;stroke-width:0.5;" x="321.406363636" xlink:href="#mc8fcea1516" y="44.28"/>
      </g>
     </g>
     <g id="line2d_56">
      <g>
       <use style="stroke:#000000;stroke-linecap:butt;stroke-width:0.5;" x="528.12" xlink:href="#m0d5b0a6425" y="44.28"/>
      </g>
     </g>
     <g id="text_31">
      <!-- 0.12 -->
      <g transform="translate(292.680738636 48.6478125)scale(0.12 -0.12)">
       <use xlink:href="#BitstreamVeraSans-Roman-30"/>
       <use x="63.623046875" xlink:href="#BitstreamVeraSans-Roman-2e"/>
       <use x="95.41015625" xlink:href="#BitstreamVeraSans-Roman-31"/>
       <use x="159.033203125" xlink:href="#BitstreamVeraSans-Roman-32"/>
      </g>
     </g>
    </g>
    <g id="text_32">
     <!-- Inverse error -->
     <g transform="translate(287.151988636 259.75875)rotate(-90.0)scale(0.12 -0.12)">
      <use xlink:href="#BitstreamVeraSans-Roman-49"/>
      <use x="29.4921875" xlink:href="#BitstreamVeraSans-Roman-6e"/>
      <use x="92.87109375" xlink:href="#BitstreamVeraSans-Roman-76"/>
      <use x="152.05078125" xlink:href="#BitstreamVeraSans-Roman-65"/>
      <use x="213.57421875" xlink:href="#BitstreamVeraSans-Roman-72"/>
      <use x="254.6875" xlink:href="#BitstreamVeraSans-Roman-73"/>
      <use x="306.787109375" xlink:href="#BitstreamVeraSans-Roman-65"/>
      <use x="368.310546875" xlink:href="#BitstreamVeraSans-Roman-20"/>
      <use x="400.09765625" xlink:href="#BitstreamVeraSans-Roman-65"/>
      <use x="461.62109375" xlink:href="#BitstreamVeraSans-Roman-72"/>
      <use x="500.984375" xlink:href="#BitstreamVeraSans-Roman-72"/>
      <use x="539.84765625" xlink:href="#BitstreamVeraSans-Roman-6f"/>
      <use x="601.029296875" xlink:href="#BitstreamVeraSans-Roman-72"/>
     </g>
    </g>
   </g>
   <g id="patch_8">
    <path d="
M321.406 44.28
L528.12 44.28" style="fill:none;stroke:#000000;"/>
   </g>
   <g id="patch_9">
    <path d="
M528.12 398.52
L528.12 44.28" style="fill:none;stroke:#000000;"/>
   </g>
   <g id="patch_10">
    <path d="
M321.406 398.52
L528.12 398.52" style="fill:none;stroke:#000000;"/>
   </g>
   <g id="patch_11">
    <path d="
M321.406 398.52
L321.406 44.28" style="fill:none;stroke:#000000;"/>
   </g>
   <g id="text_33">
    <!-- Population average error evolution -->
    <defs>
     <path d="
M19.6719 64.7969
L19.6719 37.4062
L32.0781 37.4062
Q38.9688 37.4062 42.7188 40.9688
Q46.4844 44.5312 46.4844 51.125
Q46.4844 57.6719 42.7188 61.2344
Q38.9688 64.7969 32.0781 64.7969
z

M9.8125 72.9062
L32.0781 72.9062
Q44.3438 72.9062 50.6094 67.3594
Q56.8906 61.8125 56.8906 51.125
Q56.8906 40.3281 50.6094 34.8125
Q44.3438 29.2969 32.0781 29.2969
L19.6719 29.2969
L19.6719 0
L9.8125 0
z
" id="BitstreamVeraSans-Roman-50"/>
     <path d="
M45.4062 27.9844
Q45.4062 37.75 41.375 43.1094
Q37.3594 48.4844 30.0781 48.4844
Q22.8594 48.4844 18.8281 43.1094
Q14.7969 37.75 14.7969 27.9844
Q14.7969 18.2656 18.8281 12.8906
Q22.8594 7.51562 30.0781 7.51562
Q37.3594 7.51562 41.375 12.8906
Q45.4062 18.2656 45.4062 27.9844
M54.3906 6.78125
Q54.3906 -7.17188 48.1875 -13.9844
Q42 -20.7969 29.2031 -20.7969
Q24.4688 -20.7969 20.2656 -20.0938
Q16.0625 -19.3906 12.1094 -17.9219
L12.1094 -9.1875
Q16.0625 -11.3281 19.9219 -12.3438
Q23.7812 -13.375 27.7812 -13.375
Q36.625 -13.375 41.0156 -8.76562
Q45.4062 -4.15625 45.4062 5.17188
L45.4062 9.625
Q42.625 4.78125 38.2812 2.39062
Q33.9375 0 27.875 0
Q17.8281 0 11.6719 7.65625
Q5.51562 15.3281 5.51562 27.9844
Q5.51562 40.6719 11.6719 48.3281
Q17.8281 56 27.875 56
Q33.9375 56 38.2812 53.6094
Q42.625 51.2188 45.4062 46.3906
L45.4062 54.6875
L54.3906 54.6875
z
" id="BitstreamVeraSans-Roman-67"/>
    </defs>
    <g transform="translate(300.329181818 39.28)scale(0.144 -0.144)">
     <use xlink:href="#BitstreamVeraSans-Roman-50"/>
     <use x="56.677734375" xlink:href="#BitstreamVeraSans-Roman-6f"/>
     <use x="117.859375" xlink:href="#BitstreamVeraSans-Roman-70"/>
     <use x="181.3359375" xlink:href="#BitstreamVeraSans-Roman-75"/>
     <use x="244.71484375" xlink:href="#BitstreamVeraSans-Roman-6c"/>
     <use x="272.498046875" xlink:href="#BitstreamVeraSans-Roman-61"/>
     <use x="333.77734375" xlink:href="#BitstreamVeraSans-Roman-74"/>
     <use x="372.986328125" xlink:href="#BitstreamVeraSans-Roman-69"/>
     <use x="400.76953125" xlink:href="#BitstreamVeraSans-Roman-6f"/>
     <use x="461.951171875" xlink:href="#BitstreamVeraSans-Roman-6e"/>
     <use x="525.330078125" xlink:href="#BitstreamVeraSans-Roman-20"/>
     <use x="557.1171875" xlink:href="#BitstreamVeraSans-Roman-61"/>
     <use x="618.396484375" xlink:href="#BitstreamVeraSans-Roman-76"/>
     <use x="677.576171875" xlink:href="#BitstreamVeraSans-Roman-65"/>
     <use x="739.099609375" xlink:href="#BitstreamVeraSans-Roman-72"/>
     <use x="780.212890625" xlink:href="#BitstreamVeraSans-Roman-61"/>
     <use x="841.4921875" xlink:href="#BitstreamVeraSans-Roman-67"/>
     <use x="904.96875" xlink:href="#BitstreamVeraSans-Roman-65"/>
     <use x="966.4921875" xlink:href="#BitstreamVeraSans-Roman-20"/>
     <use x="998.279296875" xlink:href="#BitstreamVeraSans-Roman-65"/>
     <use x="1059.80273438" xlink:href="#BitstreamVeraSans-Roman-72"/>
     <use x="1099.16601562" xlink:href="#BitstreamVeraSans-Roman-72"/>
     <use x="1138.02929688" xlink:href="#BitstreamVeraSans-Roman-6f"/>
     <use x="1199.2109375" xlink:href="#BitstreamVeraSans-Roman-72"/>
     <use x="1240.32421875" xlink:href="#BitstreamVeraSans-Roman-20"/>
     <use x="1272.11132812" xlink:href="#BitstreamVeraSans-Roman-65"/>
     <use x="1333.63476562" xlink:href="#BitstreamVeraSans-Roman-76"/>
     <use x="1392.81445312" xlink:href="#BitstreamVeraSans-Roman-6f"/>
     <use x="1453.99609375" xlink:href="#BitstreamVeraSans-Roman-6c"/>
     <use x="1481.77929688" xlink:href="#BitstreamVeraSans-Roman-75"/>
     <use x="1545.15820312" xlink:href="#BitstreamVeraSans-Roman-74"/>
     <use x="1584.3671875" xlink:href="#BitstreamVeraSans-Roman-69"/>
     <use x="1612.15039062" xlink:href="#BitstreamVeraSans-Roman-6f"/>
     <use x="1673.33203125" xlink:href="#BitstreamVeraSans-Roman-6e"/>
    </g>
   </g>
  </g>
 </g>
 <defs>
  <clipPath id="p9b6814814e">
   <rect height="354.24" width="206.713636364" x="321.406363636" y="44.28"/>
  </clipPath>
  <clipPath id="p112c3d4e09">
   <rect height="354.24" width="206.713636364" x="73.35" y="44.28"/>
  </clipPath>
 </defs>
</svg>
